<?xml version="1.0" encoding="UTF-8" standalone="no"?>
<svg
   xmlns:dc="http://purl.org/dc/elements/1.1/"
   xmlns:cc="http://creativecommons.org/ns#"
   xmlns:rdf="http://www.w3.org/1999/02/22-rdf-syntax-ns#"
   xmlns:svg="http://www.w3.org/2000/svg"
   xmlns="http://www.w3.org/2000/svg"
   xmlns:sodipodi="http://sodipodi.sourceforge.net/DTD/sodipodi-0.dtd"
   xmlns:inkscape="http://www.inkscape.org/namespaces/inkscape"
   inkscape:version="1.0 (4035a4fb49, 2020-05-01)"
   sodipodi:docname="Slime-Drip-Upsidedown.svg"
   id="svg312"
   version="1.1"
   viewBox="0 0 4450.9 229.85">
  <metadata
     id="metadata316">
    <rdf:RDF>
      <cc:Work
         rdf:about="">
        <dc:format>image/svg+xml</dc:format>
        <dc:type
           rdf:resource="http://purl.org/dc/dcmitype/StillImage" />
        <dc:title></dc:title>
      </cc:Work>
    </rdf:RDF>
  </metadata>
  <sodipodi:namedview
     inkscape:current-layer="svg312"
     inkscape:window-maximized="0"
     inkscape:window-y="287"
     inkscape:window-x="240"
     inkscape:cy="114.925"
     inkscape:cx="2225.45"
     inkscape:zoom="0.8180368"
     showgrid="false"
     id="namedview314"
     inkscape:window-height="1359"
     inkscape:window-width="2155"
     inkscape:pageshadow="2"
     inkscape:pageopacity="0"
     guidetolerance="10"
     gridtolerance="10"
     objecttolerance="10"
     borderopacity="1"
     bordercolor="#666666"
     pagecolor="#ffffff" />
  <defs
     id="defs166">
    <style
       id="style164">.cls-1{isolation:isolate;}.cls-2{fill:#4777e2;}.cls-3{fill:#4d87ef;}.cls-4,.cls-6{opacity:0.44;mix-blend-mode:overlay;}.cls-5,.cls-6{fill:#e9edf4;}</style>
  </defs>
  <g
     transform="matrix(1,0,0,-1,0,229.92531)"
     id="g391">
    <g
       class="cls-1"
       id="g310">
      <g
         id="Layer_2"
         data-name="Layer 2">
        <g
           id="Layer_1-2"
           data-name="Layer 1">
          <path
             class="cls-2"
             d="M 4043.62,12.74 H 0 v 42.81 a 23.54,23.54 0 0 0 12.21,-11 c 3.07,-5.63 15,-11.42 19.69,-3.54 4.1,6.76 -4.43,26.14 11.43,38.43 15.36,11.91 34.27,-2.75 49.67,-1.18 15.4,1.57 6.3,34 24.81,39.92 18.51,5.92 25.87,-8 33.09,-26.79 7.42,-19.3 26.65,-7 26.39,15.17 -0.18,15.24 -18.51,99.85 0.39,116.39 18.9,16.54 47.27,3.81 41.75,-43.46 C 213.91,132.22 200.25,103 219,99.66 c 15,-2.62 12.21,24 39.39,27.58 27.18,3.58 28.75,-8.41 39.39,-43.07 10.64,-34.66 39.22,8.71 98.47,-15.62 22.16,-9.11 39,-30.73 52.38,-9.06 13.38,21.67 17.73,39.39 40.57,39.78 22.84,0.39 22.46,-33.09 40.18,-35.45 17.72,-2.36 17.73,19.3 35.06,14.18 17.33,-5.12 19.3,-14.31 31.51,-8.4 12.21,5.91 1.18,27.31 7.88,53.7 6.7,26.39 39.38,28 37.41,-10.64 -1.97,-38.64 0,-57.11 20.09,-52.78 20.09,4.33 33.88,12.21 44.12,0.79 0,0 7,-11 19,-11 11.29,0 18,31.47 30.59,32.26 8,0.5 14.38,-3.28 19.56,-11.69 3,-4.84 3.15,-14 9.19,-17.59 16.54,-9.72 43.33,22.19 38.21,65.12 -5.12,42.93 2.36,58.3 26.78,54.75 30.22,-4.38 8.27,-74 18.91,-89 10.64,-15 28.75,-3.55 31.51,29.54 2.76,33.09 46.7,21.88 33.3,-15.06 -9.25,-25.57 16.76,-33.74 30.55,-21.13 13.79,12.61 25.08,18.91 57.77,5.12 20,-8.45 32.82,-24.82 50.94,-27.57 18.12,-2.75 33.87,4.33 41,1.18 a 23.54,23.54 0 0 0 12.22,-11 c 3.07,-5.63 15,-11.42 19.69,-3.54 4.08,6.79 -4.43,26.17 11.42,38.46 15.36,11.91 34.27,-2.75 49.63,-1.18 15.36,1.57 6.3,34 24.82,39.92 18.52,5.92 25.86,-8 33.08,-26.79 7.43,-19.3 26.66,-7 26.39,15.17 -0.18,15.24 -18.51,99.85 0.4,116.39 18.91,16.54 47.26,3.81 41.75,-43.46 -5.51,-47.27 -19.15,-76.53 -0.4,-79.83 15,-2.62 12.22,24 39.39,27.58 27.17,3.58 28.76,-8.41 39.39,-43.07 10.63,-34.66 39.26,8.71 98.47,-15.62 22.17,-9.11 39,-30.73 52.39,-9.06 13.39,21.67 17.72,39.39 40.57,39.78 22.85,0.39 22.45,-33.09 40.18,-35.45 17.73,-2.36 17.72,19.3 35.05,14.18 17.33,-5.12 19.3,-14.31 31.51,-8.4 12.21,5.91 1.18,27.31 7.88,53.7 6.7,26.39 39.39,28 37.42,-10.64 -1.97,-38.64 0,-57.11 20.09,-52.78 20.09,4.33 33.87,12.21 44.11,0.79 0,0 7,-11 19,-11 11.29,0 18,31.47 30.59,32.26 8,0.5 14.39,-3.28 19.56,-11.69 3,-4.84 3.15,-14 9.2,-17.59 16.54,-9.72 43.32,22.19 38.2,65.12 -5.12,42.93 2.37,58.3 26.79,54.75 30.22,-4.38 8.27,-74 18.9,-89 10.63,-15 28.76,-3.6 31.55,29.46 2.79,33.06 46.66,21.88 33.27,-15.11 -9.27,-25.57 16.73,-33.74 30.5,-21.13 13.77,12.61 25.08,18.91 57.77,5.12 20.05,-8.45 32.83,-24.82 50.95,-27.57 18.12,-2.75 33.87,4.33 41,1.18 a 23.54,23.54 0 0 0 12.21,-11 c 3.07,-5.63 15,-11.42 19.69,-3.54 4.08,6.79 -4.43,26.17 11.43,38.46 15.36,11.91 34.26,-2.75 49.63,-1.18 15.37,1.57 6.3,34 24.81,39.92 18.51,5.92 25.87,-8 33.09,-26.79 7.42,-19.3 26.65,-7 26.39,15.17 -0.18,15.24 -18.51,99.85 0.39,116.39 18.9,16.54 47.27,3.81 41.75,-43.46 -5.52,-47.27 -19.14,-76.53 -0.39,-79.83 15,-2.62 12.21,24 39.39,27.58 27.18,3.58 28.75,-8.41 39.39,-43.07 10.64,-34.66 39.25,8.71 98.47,-15.62 22.16,-9.11 39,-30.73 52.38,-9.06 13.38,21.67 17.73,39.39 40.57,39.78 22.84,0.39 22.46,-33.09 40.18,-35.45 17.72,-2.36 17.73,19.3 35.06,14.18 17.33,-5.12 19.3,-14.31 31.51,-8.4 12.21,5.91 1.18,27.31 7.88,53.7 6.7,26.39 39.38,28 37.41,-10.64 -1.97,-38.64 0,-57.11 20.09,-52.78 20.09,4.33 33.88,12.21 44.12,0.79 0,0 7,-11 19,-11 11.3,0 18,31.47 30.6,32.26 8,0.5 14.38,-3.28 19.56,-11.69 3,-4.84 3.15,-14 9.19,-17.59 16.54,-9.72 43.33,22.19 38.21,65.12 -5.12,42.93 2.36,58.3 26.78,54.75 30.22,-4.38 8.27,-74 18.91,-89 10.64,-15 28.75,-3.55 31.51,29.54 2.76,33.09 46.65,21.85 33.3,-15.09 -9.25,-25.57 16.76,-33.74 30.55,-21.13 13.79,12.61 25.08,18.91 57.77,5.12 20.05,-8.45 32.82,-24.82 50.94,-27.57 18.12,-2.75 33.87,4.33 41,1.18 a 23.5,23.5 0 0 0 12.21,-11 c 3.08,-5.63 15,-11.42 19.7,-3.54 4.08,6.79 -4.43,26.17 11.42,38.46 15.36,11.91 34.27,-2.75 49.63,-1.18 15.36,1.57 6.3,34 24.82,39.92 18.52,5.92 25.86,-8 33.08,-26.79 7.43,-19.3 26.66,-7 26.39,15.17 -0.18,15.24 -18.51,99.85 0.4,116.39 18.91,16.54 47.26,3.81 41.75,-43.46 -5.51,-47.27 -19.15,-76.53 -0.4,-79.83 15,-2.62 12.21,24 39.39,27.58 27.18,3.58 28.76,-8.41 39.39,-43.07 10.63,-34.66 39.26,8.71 98.47,-15.62 22.17,-9.11 39,-30.73 52.39,-9.06 13.39,21.67 17.72,39.39 40.57,39.78 22.85,0.39 22.45,-33.09 40.18,-35.45 17.73,-2.36 17.72,19.3 35.05,14.18 17.33,-5.12 19.3,-14.31 31.51,-8.4 12.21,5.91 1.18,27.31 7.88,53.7 6.7,26.39 39.39,28 37.42,-10.64 -1.97,-38.64 0,-57.11 20.09,-52.78 20.09,4.33 33.87,12.21 44.11,0.79 0,0 7,-11 19,-11 11.29,0 18,31.47 30.59,32.26 8,0.5 14.38,-3.28 19.56,-11.69 3,-4.84 3.15,-14 9.2,-17.59 16.54,-9.72 43.32,22.19 38.2,65.12 -5.12,42.93 2.37,58.3 26.79,54.75 30.21,-4.38 8.27,-74 18.9,-89 10.63,-15 28.76,-3.55 31.51,29.54 2.75,33.09 46.66,21.88 33.27,-15.11 -9.26,-25.57 16.76,-33.74 30.54,-21.13 13.78,12.61 25.08,18.91 57.77,5.12 20.05,-8.45 32.83,-24.82 50.95,-27.57 18.12,-2.75 33.87,4.33 41,1.18 V 12.74 Z"
             id="path168" />
          <path
             class="cls-3"
             d="M 4043.62,0 H 0 v 42.81 c 0,0 5.33,-1.81 13.39,-7.48 6.84,-4.82 15.88,-8.54 20.61,-0.67 4.08,6.8 -3.67,21.54 10.9,35.34 14.57,13.8 28.64,-6.86 43.72,-3.54 19.7,4.33 10.64,33.08 29.15,39 18.51,5.92 25.87,-8 33.09,-26.78 7.42,-19.3 26.65,-7 26.39,15.16 -0.18,15.25 -18.51,99.85 0.39,116.39 18.9,16.54 42.94,9.46 37.42,-37.81 -5.52,-47.27 -13.39,-77.62 3.94,-85.49 17.33,-7.87 12.21,24 39.39,27.57 27.18,3.57 30.72,-8.53 41.36,-43.2 10.64,-34.67 41.62,8.45 100.83,-15.88 22.17,-9.11 31.51,-30.65 44.9,-9 13.39,21.65 20.88,39.71 43.72,40.1 22.84,0.39 22.46,-33.08 40.18,-35.45 17.72,-2.37 17.73,19.3 35.06,14.18 17.33,-5.12 15,-14.18 27.17,-8.27 7.21,3.49 11.15,10.37 11.82,22.45 0.47,8.39 -2.35,20.31 0.4,31.12 6.69,26.39 39.38,28 37.41,-10.63 -1.97,-38.63 0,-57.12 20.09,-52.79 20.09,4.33 31.91,25.61 47.27,12.22 0,0 10.9,-14.64 19.3,-17.5 15.1,-5.12 14.57,26.68 27.18,27.35 19.56,1 12.21,-19.56 28.75,-29.27 16.54,-9.71 46.48,21.87 41.36,64.8 -5.12,42.93 -0.79,58.61 23.63,55.07 30.22,-4.39 8.27,-74.05 18.91,-89 10.64,-14.95 28.75,-3.55 31.51,29.54 2.76,33.09 35.45,24 28,-9.06 -6,-26.52 17.34,-33.87 31.12,-21.27 13.78,12.6 33.09,22.67 62.89,3.41 19.43,-12.55 32.43,-29 50.55,-31.77 18.12,-2.77 33.87,4.33 41,1.18 0,0 5.33,-1.79 13.4,-7.48 6.83,-4.82 15.88,-8.54 20.61,-0.67 4.07,6.8 -3.68,21.54 10.9,35.33 14.58,13.79 28.64,-6.86 43.72,-3.54 19.69,4.33 10.63,33.08 29.15,39 18.52,5.92 25.86,-8 33.08,-26.78 7.43,-19.3 26.66,-7 26.39,15.16 -0.18,15.25 -18.51,99.85 0.4,116.39 18.91,16.54 42.93,9.46 37.42,-37.81 -5.51,-47.27 -13.4,-77.6 3.93,-85.47 17.33,-7.87 12.22,24 39.39,27.57 27.17,3.57 30.73,-8.53 41.36,-43.2 10.63,-34.67 41.62,8.45 100.84,-15.88 22.16,-9.11 31.51,-30.65 44.9,-9 13.39,21.65 20.87,39.71 43.72,40.1 22.85,0.39 22.45,-33.08 40.18,-35.45 17.73,-2.37 17.72,19.3 35.05,14.18 17.33,-5.12 15,-14.18 27.18,-8.27 7.21,3.49 11.14,10.37 11.82,22.45 0.47,8.39 -2.35,20.31 0.39,31.12 6.7,26.39 39.39,28 37.42,-10.63 -1.97,-38.63 0,-57.12 20.09,-52.79 20.09,4.33 31.9,25.61 47.26,12.22 0,0 10.9,-14.64 19.3,-17.5 15.09,-5.13 14.57,26.67 27.18,27.34 19.56,1 12.21,-19.56 28.76,-29.27 16.55,-9.71 46.47,21.87 41.35,64.8 -5.12,42.93 -0.78,58.61 23.64,55.07 30.22,-4.39 8.27,-74.05 18.9,-89 10.63,-14.95 28.76,-3.55 31.51,29.54 2.75,33.09 35.45,24 28,-9.06 -6,-26.52 17.33,-33.87 31.12,-21.27 13.79,12.6 33.09,22.67 62.89,3.41 19.43,-12.55 32.43,-29 50.55,-31.77 18.12,-2.77 33.87,4.33 41,1.18 0,0 5.33,-1.79 13.39,-7.48 6.84,-4.82 15.88,-8.54 20.61,-0.67 4.08,6.8 -3.67,21.54 10.9,35.33 14.57,13.79 28.64,-6.86 43.72,-3.54 19.7,4.33 10.64,33.08 29.15,39 18.51,5.92 25.87,-8 33.09,-26.78 7.42,-19.3 26.65,-7 26.39,15.16 -0.18,15.25 -18.51,99.85 0.39,116.39 18.9,16.54 42.94,9.46 37.42,-37.81 -5.52,-47.27 -13.39,-77.6 3.94,-85.47 17.33,-7.87 12.21,24 39.39,27.57 27.18,3.57 30.72,-8.53 41.36,-43.2 10.64,-34.67 41.62,8.45 100.83,-15.88 22.17,-9.11 31.51,-30.65 44.9,-9 13.39,21.65 20.88,39.71 43.72,40.1 22.84,0.39 22.46,-33.08 40.18,-35.45 17.72,-2.37 17.73,19.3 35.06,14.18 17.33,-5.12 15,-14.18 27.17,-8.27 7.21,3.49 11.15,10.37 11.82,22.45 0.47,8.39 -2.35,20.31 0.4,31.12 6.69,26.39 39.38,28 37.41,-10.63 -1.97,-38.63 0,-57.12 20.09,-52.79 20.09,4.33 31.91,25.61 47.27,12.22 0,0 10.9,-14.64 19.3,-17.5 15.08,-5.13 14.57,26.67 27.18,27.34 19.56,1 12.21,-19.56 28.75,-29.27 16.54,-9.71 46.48,21.87 41.36,64.8 -5.12,42.93 -0.79,58.61 23.63,55.07 30.22,-4.39 8.27,-74.05 18.91,-89 10.64,-14.95 28.75,-3.55 31.51,29.54 2.76,33.09 35.45,24 28,-9.06 -6,-26.52 17.34,-33.87 31.12,-21.27 13.78,12.6 33.09,22.67 62.89,3.41 19.43,-12.55 32.43,-29 50.55,-31.77 18.12,-2.77 33.87,4.33 41,1.18 0,0 5.33,-1.79 13.4,-7.48 6.83,-4.82 15.88,-8.54 20.61,-0.67 4.07,6.8 -3.68,21.54 10.9,35.33 14.58,13.79 28.64,-6.86 43.72,-3.54 19.69,4.33 10.63,33.08 29.15,39 18.52,5.92 25.86,-8 33.08,-26.78 7.43,-19.3 26.66,-7 26.39,15.16 -0.18,15.25 -18.51,99.85 0.4,116.39 18.91,16.54 42.93,9.46 37.42,-37.81 -5.51,-47.27 -13.4,-77.6 3.93,-85.47 17.33,-7.87 12.21,24 39.39,27.57 27.18,3.57 30.73,-8.53 41.36,-43.2 10.63,-34.67 41.62,8.45 100.84,-15.88 22.16,-9.11 31.51,-30.65 44.9,-9 13.39,21.65 20.87,39.71 43.72,40.1 22.85,0.39 22.45,-33.08 40.18,-35.45 17.73,-2.37 17.72,19.3 35.05,14.18 17.33,-5.12 15,-14.18 27.18,-8.27 7.21,3.49 11.14,10.37 11.82,22.45 0.46,8.39 -2.35,20.31 0.39,31.12 6.7,26.39 39.39,28 37.42,-10.63 -1.97,-38.63 0,-57.12 20.09,-52.79 20.09,4.33 31.9,25.61 47.26,12.22 0,0 10.9,-14.64 19.3,-17.5 15.09,-5.13 14.57,26.67 27.18,27.34 19.56,1 12.21,-19.56 28.76,-29.27 16.55,-9.71 46.47,21.87 41.35,64.8 -5.12,42.93 -0.78,58.61 23.64,55.07 30.21,-4.39 8.27,-74.05 18.9,-89 10.63,-14.95 28.76,-3.55 31.51,29.54 2.75,33.09 35.45,24 28,-9.06 -6,-26.52 17.33,-33.87 31.12,-21.27 13.79,12.6 33.08,22.67 62.89,3.41 19.43,-12.55 32.43,-29 50.55,-31.77 18.12,-2.77 33.87,4.33 41,1.18 V 0 Z"
             id="path170" />
          <ellipse
             class="cls-2"
             cx="1465.45"
             cy="130.60001"
             rx="13.39"
             ry="15.12"
             id="ellipse172" />
          <ellipse
             class="cls-3"
             cx="1465.45"
             cy="126.56"
             rx="11.91"
             ry="11.08"
             id="ellipse174" />
          <g
             class="cls-4"
             id="g178">
            <path
               class="cls-5"
               d="m 1292.32,143 c 0,6 0,12 0.17,17.92 0.17,5.92 0.5,11.82 1.24,17.62 0.38,2.9 0.88,5.77 1.53,8.59 a 47.38,47.38 0 0 0 2.7,8.14 22.77,22.77 0 0 0 4.72,7 17.5,17.5 0 0 0 7.5,4.3 15.26,15.26 0 0 1 -8.74,-2.78 21.81,21.81 0 0 1 -6.25,-7.06 38.19,38.19 0 0 1 -3.6,-8.62 65.35,65.35 0 0 1 -1.82,-9 99,99 0 0 1 2.55,-36.06 z"
               id="path176" />
          </g>
          <g
             class="cls-4"
             id="g182">
            <path
               class="cls-5"
               d="m 1579.48,55.42 c 1.71,2.47 3.24,4.89 4.81,7.26 1.57,2.37 3.13,4.67 4.81,6.83 a 37.94,37.94 0 0 0 5.56,5.89 21.53,21.53 0 0 0 7.27,4 12.75,12.75 0 0 1 -9,-1.41 22.17,22.17 0 0 1 -7,-6.06 32.33,32.33 0 0 1 -4.45,-7.85 27.6,27.6 0 0 1 -2,-8.66 z"
               id="path180" />
          </g>
          <g
             class="cls-4"
             id="g186">
            <path
               class="cls-5"
               d="m 1444.53,52.79 c 5.37,0.21 10.65,0.42 15.93,0.52 5.28,0.1 10.53,0.18 15.79,0.09 5.26,-0.09 10.51,-0.22 15.77,-0.52 5.26,-0.3 10.53,-0.71 15.92,-0.93 a 82.09,82.09 0 0 1 -15.58,4.05 104.25,104.25 0 0 1 -16.06,1.39 109.55,109.55 0 0 1 -16.09,-1 76.65,76.65 0 0 1 -15.68,-3.6 z"
               id="path184" />
          </g>
          <g
             class="cls-4"
             id="g190">
            <path
               class="cls-5"
               d="m 1725.48,87.58 c -0.08,3.29 -0.17,6.45 -0.13,9.56 a 60.54,60.54 0 0 0 0.72,9.11 28.71,28.71 0 0 0 2.63,8.41 23.9,23.9 0 0 0 2.43,3.77 33.91,33.91 0 0 0 3.27,3.45 14.53,14.53 0 0 1 -4.58,-2 17,17 0 0 1 -3.77,-3.52 21.27,21.27 0 0 1 -3.93,-9.47 30.33,30.33 0 0 1 0.11,-10 28.16,28.16 0 0 1 3.25,-9.31 z"
               id="path188" />
          </g>
          <g
             class="cls-4"
             id="g194">
            <path
               class="cls-5"
               d="m 2147.85,55.25 a 49.17,49.17 0 0 1 9.9,-10.27 57.19,57.19 0 0 1 12.3,-7.46 45.44,45.44 0 0 1 14,-3.77 32.92,32.92 0 0 1 14.24,1.58 63.32,63.32 0 0 0 -13.75,1.52 70.49,70.49 0 0 0 -12.86,4.33 105.5,105.5 0 0 0 -12.12,6.38 c -3.97,2.37 -7.83,4.95 -11.71,7.69 z"
               id="path192" />
          </g>
          <g
             class="cls-4"
             id="g198">
            <path
               class="cls-5"
               d="m 1962.2,149.82 a 7.07,7.07 0 0 0 1.85,-1.57 11,11 0 0 0 0.74,-0.92 8.26,8.26 0 0 0 0.64,-1 25.57,25.57 0 0 0 2,-4.19 70.07,70.07 0 0 0 2.53,-9.09 c 0.62,-3.13 1.22,-6.28 1.77,-9.49 0.25,-1.61 0.63,-3.21 0.9,-4.84 0.27,-1.63 0.63,-3.25 1.13,-4.9 0.39,1.65 0.61,3.31 0.84,5 a 49.69,49.69 0 0 1 0.26,5 48.89,48.89 0 0 1 -1,10.06 33.09,33.09 0 0 1 -3.63,9.64 17.21,17.21 0 0 1 -3.34,4.08 8.44,8.44 0 0 1 -1.05,0.82 6.87,6.87 0 0 1 -1.14,0.68 5.5,5.5 0 0 1 -2.5,0.72 z"
               id="path196" />
          </g>
          <g
             class="cls-4"
             id="g202">
            <path
               class="cls-5"
               d="m 1231.28,99.53 a 33.48,33.48 0 0 0 7.45,-2.08 31.82,31.82 0 0 0 6.33,-3.54 c 0.93,-0.78 1.92,-1.47 2.79,-2.35 0.44,-0.43 1,-0.8 1.35,-1.27 0.35,-0.47 0.86,-0.91 1.3,-1.36 0.44,-0.45 0.84,-0.94 1.27,-1.42 0.43,-0.48 0.85,-1 1.3,-1.46 0.84,-1 1.63,-2.06 2.63,-3.06 a 27.27,27.27 0 0 1 -0.92,4 c -0.25,0.64 -0.51,1.28 -0.8,1.91 a 12.47,12.47 0 0 1 -0.94,1.86 20.13,20.13 0 0 1 -2.48,3.42 21.7,21.7 0 0 1 -3.13,2.92 19,19 0 0 1 -7.88,3.34 13.9,13.9 0 0 1 -8.27,-0.91 z"
               id="path200" />
          </g>
          <ellipse
             class="cls-6"
             cx="1465.45"
             cy="122.66"
             rx="5.9299998"
             ry="5.5100002"
             id="ellipse204" />
          <ellipse
             class="cls-2"
             cx="352.72"
             cy="130.60001"
             rx="13.39"
             ry="15.12"
             id="ellipse206" />
          <ellipse
             class="cls-3"
             cx="352.72"
             cy="126.56"
             rx="11.91"
             ry="11.08"
             id="ellipse208" />
          <g
             class="cls-4"
             id="g212">
            <path
               class="cls-5"
               d="m 179.6,143 c 0,6 0,12 0.17,17.92 0.17,5.92 0.5,11.82 1.24,17.62 0.38,2.9 0.87,5.77 1.52,8.59 a 48.29,48.29 0 0 0 2.71,8.14 22.74,22.74 0 0 0 4.71,7 17.56,17.56 0 0 0 7.5,4.3 15.28,15.28 0 0 1 -8.74,-2.78 21.78,21.78 0 0 1 -6.24,-7.06 38.22,38.22 0 0 1 -3.61,-8.62 65.35,65.35 0 0 1 -1.82,-9 98.74,98.74 0 0 1 2.56,-36.11 z"
               id="path210" />
          </g>
          <g
             class="cls-4"
             id="g216">
            <path
               class="cls-5"
               d="m 466.75,55.42 c 1.71,2.47 3.24,4.89 4.81,7.26 1.57,2.37 3.13,4.67 4.82,6.83 a 37.88,37.88 0 0 0 5.55,5.89 21.72,21.72 0 0 0 7.27,4 12.76,12.76 0 0 1 -9,-1.41 22.13,22.13 0 0 1 -7,-6.06 31.68,31.68 0 0 1 -4.45,-7.85 27.61,27.61 0 0 1 -2,-8.66 z"
               id="path214" />
          </g>
          <g
             class="cls-4"
             id="g220">
            <path
               class="cls-5"
               d="m 331.81,52.79 c 5.36,0.21 10.64,0.42 15.92,0.52 5.28,0.1 10.54,0.18 15.79,0.09 5.25,-0.09 10.51,-0.22 15.77,-0.52 5.26,-0.3 10.53,-0.71 15.92,-0.93 a 82.09,82.09 0 0 1 -15.58,4.05 104,104 0 0 1 -16.06,1.39 109.34,109.34 0 0 1 -16.08,-1 76.65,76.65 0 0 1 -15.68,-3.6 z"
               id="path218" />
          </g>
          <g
             class="cls-4"
             id="g224">
            <path
               class="cls-5"
               d="m 612.75,87.58 c -0.07,3.29 -0.16,6.45 -0.12,9.56 a 60.55,60.55 0 0 0 0.71,9.11 29,29 0 0 0 2.63,8.41 24.71,24.71 0 0 0 2.44,3.77 31.83,31.83 0 0 0 3.27,3.45 14.59,14.59 0 0 1 -4.59,-2 16.73,16.73 0 0 1 -3.76,-3.52 21.15,21.15 0 0 1 -3.93,-9.47 29.8,29.8 0 0 1 0.11,-10 28.14,28.14 0 0 1 3.24,-9.31 z"
               id="path222" />
          </g>
          <g
             class="cls-4"
             id="g228">
            <path
               class="cls-5"
               d="M 1035.13,55.25 A 49.38,49.38 0 0 1 1045,45 a 57.19,57.19 0 0 1 12.3,-7.46 45.5,45.5 0 0 1 14,-3.77 32.92,32.92 0 0 1 14.24,1.58 63.32,63.32 0 0 0 -13.75,1.52 70.23,70.23 0 0 0 -12.86,4.33 104.81,104.81 0 0 0 -12.13,6.38 c -3.94,2.35 -7.8,4.93 -11.67,7.67 z"
               id="path226" />
          </g>
          <g
             class="cls-4"
             id="g232">
            <path
               class="cls-5"
               d="m 849.48,149.82 a 7,7 0 0 0 1.84,-1.57 8.05,8.05 0 0 0 0.74,-0.92 6.35,6.35 0 0 0 0.64,-1 24.82,24.82 0 0 0 2,-4.19 70,70 0 0 0 2.52,-9.09 c 0.63,-3.13 1.22,-6.28 1.77,-9.49 0.26,-1.61 0.64,-3.21 0.91,-4.84 0.27,-1.63 0.63,-3.25 1.12,-4.9 a 49.76,49.76 0 0 1 0.84,5 47,47 0 0 1 0.27,5 48.9,48.9 0 0 1 -1,10.06 32.78,32.78 0 0 1 -3.62,9.64 17.45,17.45 0 0 1 -3.34,4.08 8.55,8.55 0 0 1 -1.06,0.82 6.48,6.48 0 0 1 -1.14,0.68 5.43,5.43 0 0 1 -2.49,0.72 z"
               id="path230" />
          </g>
          <g
             class="cls-4"
             id="g236">
            <path
               class="cls-5"
               d="m 118.56,99.53 a 33.24,33.24 0 0 0 7.44,-2.08 31.27,31.27 0 0 0 6.33,-3.54 c 0.93,-0.78 1.93,-1.47 2.79,-2.35 a 18.08,18.08 0 0 0 1.35,-1.27 c 0.42,-0.46 0.86,-0.91 1.31,-1.36 0.45,-0.45 0.84,-0.94 1.27,-1.42 0.43,-0.48 0.85,-1 1.3,-1.46 0.83,-1 1.63,-2.06 2.63,-3.06 a 28.6,28.6 0 0 1 -0.92,4 c -0.25,0.64 -0.52,1.28 -0.8,1.91 a 11.63,11.63 0 0 1 -0.95,1.86 20.07,20.07 0 0 1 -2.47,3.42 22.31,22.31 0 0 1 -3.14,2.92 18.91,18.91 0 0 1 -7.87,3.34 13.89,13.89 0 0 1 -8.27,-0.91 z"
               id="path234" />
          </g>
          <ellipse
             class="cls-6"
             cx="352.72"
             cy="122.66"
             rx="5.9299998"
             ry="5.5100002"
             id="ellipse238" />
          <ellipse
             class="cls-2"
             cx="2578.1699"
             cy="130.60001"
             rx="13.39"
             ry="15.12"
             id="ellipse240" />
          <ellipse
             class="cls-3"
             cx="2578.1699"
             cy="126.56"
             rx="11.91"
             ry="11.08"
             id="ellipse242" />
          <g
             class="cls-4"
             id="g246">
            <path
               class="cls-5"
               d="m 2405.05,143 c 0,6 0,12 0.17,17.92 0.17,5.92 0.5,11.82 1.24,17.62 0.38,2.9 0.87,5.77 1.52,8.59 a 48.29,48.29 0 0 0 2.71,8.14 22.74,22.74 0 0 0 4.71,7 17.56,17.56 0 0 0 7.5,4.3 15.28,15.28 0 0 1 -8.74,-2.78 21.78,21.78 0 0 1 -6.24,-7.06 38.22,38.22 0 0 1 -3.61,-8.62 65.35,65.35 0 0 1 -1.82,-9 91.72,91.72 0 0 1 -0.38,-18.21 90.63,90.63 0 0 1 2.94,-17.9 z"
               id="path244" />
          </g>
          <g
             class="cls-4"
             id="g250">
            <path
               class="cls-5"
               d="m 2692.2,55.42 c 1.71,2.47 3.24,4.89 4.81,7.26 1.57,2.37 3.13,4.67 4.82,6.83 a 37.88,37.88 0 0 0 5.55,5.89 21.72,21.72 0 0 0 7.27,4 12.76,12.76 0 0 1 -9,-1.41 22.13,22.13 0 0 1 -7,-6.06 31.68,31.68 0 0 1 -4.45,-7.85 27.61,27.61 0 0 1 -2,-8.66 z"
               id="path248" />
          </g>
          <g
             class="cls-4"
             id="g254">
            <path
               class="cls-5"
               d="m 2557.26,52.79 c 5.36,0.21 10.64,0.42 15.92,0.52 5.28,0.1 10.54,0.18 15.79,0.09 5.25,-0.09 10.51,-0.22 15.77,-0.52 5.26,-0.3 10.53,-0.71 15.92,-0.93 a 82.09,82.09 0 0 1 -15.58,4.05 104,104 0 0 1 -16.08,1.4 109.34,109.34 0 0 1 -16.08,-1 76.65,76.65 0 0 1 -15.66,-3.61 z"
               id="path252" />
          </g>
          <g
             class="cls-4"
             id="g258">
            <path
               class="cls-5"
               d="m 2838.2,87.58 c -0.07,3.29 -0.16,6.45 -0.12,9.56 a 60.55,60.55 0 0 0 0.71,9.11 29,29 0 0 0 2.63,8.41 24.71,24.71 0 0 0 2.44,3.77 31.83,31.83 0 0 0 3.27,3.45 14.59,14.59 0 0 1 -4.59,-2 16.73,16.73 0 0 1 -3.76,-3.52 21,21 0 0 1 -3.93,-9.47 29.8,29.8 0 0 1 0.11,-10 28.14,28.14 0 0 1 3.24,-9.31 z"
               id="path256" />
          </g>
          <g
             class="cls-4"
             id="g262">
            <path
               class="cls-5"
               d="m 3260.58,55.25 a 49.38,49.38 0 0 1 9.89,-10.25 57.19,57.19 0 0 1 12.3,-7.46 45.51,45.51 0 0 1 14,-3.77 33,33 0 0 1 14.23,1.56 63.32,63.32 0 0 0 -13.75,1.52 70.23,70.23 0 0 0 -12.86,4.33 104.81,104.81 0 0 0 -12.13,6.38 c -3.95,2.37 -7.8,4.95 -11.68,7.69 z"
               id="path260" />
          </g>
          <g
             class="cls-4"
             id="g266">
            <path
               class="cls-5"
               d="m 3074.93,149.82 a 7,7 0 0 0 1.84,-1.57 8.05,8.05 0 0 0 0.74,-0.92 6.35,6.35 0 0 0 0.64,-1 24.82,24.82 0 0 0 2,-4.19 70,70 0 0 0 2.52,-9.09 c 0.63,-3.13 1.22,-6.28 1.77,-9.49 0.25,-1.61 0.63,-3.21 0.91,-4.84 0.28,-1.63 0.63,-3.25 1.12,-4.9 a 49.76,49.76 0 0 1 0.84,5 47,47 0 0 1 0.27,5 48.9,48.9 0 0 1 -1,10.06 32.78,32.78 0 0 1 -3.62,9.64 17.45,17.45 0 0 1 -3.34,4.08 8.55,8.55 0 0 1 -1.06,0.82 6.48,6.48 0 0 1 -1.14,0.68 5.43,5.43 0 0 1 -2.49,0.72 z"
               id="path264" />
          </g>
          <g
             class="cls-4"
             id="g270">
            <path
               class="cls-5"
               d="m 2344,99.53 a 33.24,33.24 0 0 0 7.44,-2.08 31.27,31.27 0 0 0 6.33,-3.54 c 0.93,-0.78 1.93,-1.47 2.79,-2.35 a 18.08,18.08 0 0 0 1.35,-1.27 c 0.42,-0.46 0.86,-0.91 1.31,-1.36 0.45,-0.45 0.84,-0.94 1.27,-1.42 0.43,-0.48 0.85,-1 1.3,-1.46 0.83,-1 1.63,-2.06 2.63,-3.06 a 28.6,28.6 0 0 1 -0.92,4 c -0.25,0.64 -0.52,1.28 -0.8,1.91 a 11.63,11.63 0 0 1 -0.95,1.86 20.07,20.07 0 0 1 -2.47,3.42 22.31,22.31 0 0 1 -3.14,2.92 18.91,18.91 0 0 1 -7.87,3.34 13.89,13.89 0 0 1 -8.27,-0.91 z"
               id="path268" />
          </g>
          <ellipse
             class="cls-6"
             cx="2578.1699"
             cy="122.66"
             rx="5.9299998"
             ry="5.5100002"
             id="ellipse272" />
          <ellipse
             class="cls-2"
             cx="3690.8999"
             cy="130.60001"
             rx="13.39"
             ry="15.12"
             id="ellipse274" />
          <ellipse
             class="cls-3"
             cx="3690.8999"
             cy="126.56"
             rx="11.91"
             ry="11.08"
             id="ellipse276" />
          <g
             class="cls-4"
             id="g280">
            <path
               class="cls-5"
               d="m 3517.77,143 c 0,6 0,12 0.17,17.92 0.17,5.92 0.5,11.82 1.24,17.62 0.38,2.9 0.87,5.77 1.53,8.59 a 47.38,47.38 0 0 0 2.7,8.14 22.77,22.77 0 0 0 4.72,7 17.44,17.44 0 0 0 7.5,4.3 15.31,15.31 0 0 1 -8.75,-2.78 21.89,21.89 0 0 1 -6.24,-7.06 37.74,37.74 0 0 1 -3.64,-8.73 65.35,65.35 0 0 1 -1.82,-9 99,99 0 0 1 2.55,-36.06 z"
               id="path278" />
          </g>
          <g
             class="cls-4"
             id="g284">
            <path
               class="cls-5"
               d="m 3804.93,55.42 c 1.71,2.47 3.24,4.89 4.81,7.26 1.57,2.37 3.13,4.67 4.81,6.83 a 37.48,37.48 0 0 0 5.56,5.89 21.53,21.53 0 0 0 7.27,4 12.75,12.75 0 0 1 -9,-1.41 22.17,22.17 0 0 1 -7,-6.06 32.33,32.33 0 0 1 -4.45,-7.85 27.6,27.6 0 0 1 -2,-8.66 z"
               id="path282" />
          </g>
          <g
             class="cls-4"
             id="g288">
            <path
               class="cls-5"
               d="m 3670,52.79 c 5.37,0.21 10.65,0.42 15.93,0.52 5.28,0.1 10.53,0.18 15.79,0.09 5.26,-0.09 10.51,-0.22 15.77,-0.52 5.26,-0.3 10.53,-0.71 15.92,-0.93 a 82.09,82.09 0 0 1 -15.6,4.05 104.25,104.25 0 0 1 -16.06,1.39 109.55,109.55 0 0 1 -16.09,-1 76.65,76.65 0 0 1 -15.66,-3.6 z"
               id="path286" />
          </g>
          <g
             class="cls-4"
             id="g292">
            <path
               class="cls-5"
               d="m 3950.93,87.58 c -0.08,3.29 -0.17,6.45 -0.13,9.56 a 60.54,60.54 0 0 0 0.72,9.11 28.71,28.71 0 0 0 2.63,8.41 23.9,23.9 0 0 0 2.43,3.77 33.91,33.91 0 0 0 3.27,3.45 14.53,14.53 0 0 1 -4.58,-2 17,17 0 0 1 -3.77,-3.52 21.27,21.27 0 0 1 -3.93,-9.47 30.33,30.33 0 0 1 0.11,-10 28.16,28.16 0 0 1 3.25,-9.31 z"
               id="path290" />
          </g>
          <g
             class="cls-4"
             id="g296">
            <path
               class="cls-5"
               d="m 4373.3,55.25 a 49.17,49.17 0 0 1 9.9,-10.25 57.19,57.19 0 0 1 12.3,-7.46 45.44,45.44 0 0 1 14,-3.77 32.92,32.92 0 0 1 14.24,1.58 63.32,63.32 0 0 0 -13.74,1.5 70.49,70.49 0 0 0 -12.86,4.33 105.5,105.5 0 0 0 -12.14,6.38 c -4,2.37 -7.82,4.95 -11.7,7.69 z"
               id="path294" />
          </g>
          <g
             class="cls-4"
             id="g300">
            <path
               class="cls-5"
               d="m 4187.65,149.82 a 7.07,7.07 0 0 0 1.85,-1.57 9.21,9.21 0 0 0 0.73,-0.92 7.24,7.24 0 0 0 0.65,-1 25.57,25.57 0 0 0 2,-4.19 70.07,70.07 0 0 0 2.53,-9.09 c 0.62,-3.13 1.22,-6.28 1.77,-9.49 0.25,-1.61 0.63,-3.21 0.9,-4.84 0.27,-1.63 0.63,-3.25 1.13,-4.9 0.39,1.65 0.61,3.31 0.84,5 a 49.69,49.69 0 0 1 0.26,5 48.89,48.89 0 0 1 -1,10.06 33.09,33.09 0 0 1 -3.63,9.64 17.21,17.21 0 0 1 -3.34,4.08 8.44,8.44 0 0 1 -1.05,0.82 6.87,6.87 0 0 1 -1.14,0.68 5.5,5.5 0 0 1 -2.5,0.72 z"
               id="path298" />
          </g>
          <g
             class="cls-4"
             id="g304">
            <path
               class="cls-5"
               d="m 3456.73,99.53 a 33.48,33.48 0 0 0 7.45,-2.08 31.82,31.82 0 0 0 6.33,-3.54 c 0.93,-0.78 1.92,-1.47 2.79,-2.35 0.44,-0.43 0.94,-0.8 1.35,-1.27 0.41,-0.47 0.86,-0.91 1.3,-1.36 0.44,-0.45 0.84,-0.94 1.27,-1.42 0.43,-0.48 0.85,-1 1.3,-1.46 0.84,-1 1.63,-2.06 2.63,-3.06 a 27.27,27.27 0 0 1 -0.92,4 c -0.25,0.64 -0.51,1.28 -0.8,1.91 a 12.47,12.47 0 0 1 -0.94,1.86 20.13,20.13 0 0 1 -2.48,3.42 21.7,21.7 0 0 1 -3.13,2.92 19,19 0 0 1 -7.88,3.34 13.9,13.9 0 0 1 -8.27,-0.91 z"
               id="path302" />
          </g>
          <ellipse
             class="cls-6"
             cx="3690.8999"
             cy="122.66"
             rx="5.9299998"
             ry="5.5100002"
             id="ellipse306" />
        </g>
      </g>
    </g>
  </g>
</svg>
