<svg xmlns="http://www.w3.org/2000/svg" id="svg312" version="1.1" viewBox="0 0 4450.9 229.85"><defs id="defs166"><style id="style164">.cls-2{fill:#4777e2}.cls-3{fill:#4d87ef}.cls-4,.cls-6{opacity:.44;mix-blend-mode:overlay}.cls-5,.cls-6{fill:#e9edf4}</style></defs><g transform="matrix(1 0 0 -1 0 229.925)" id="g391"><g id="g310" style="isolation:isolate"><g id="Layer_2" data-name="Layer 2"><g id="Layer_1-2" data-name="Layer 1"><path class="cls-2" d="M4043.62 12.74H0v42.81a23.54 23.54 0 0012.21-11c3.07-5.63 15-11.42 19.69-3.54 4.1 6.76-4.43 26.14 11.43 38.43C58.69 91.35 77.6 76.69 93 78.26c15.4 1.57 6.3 34 24.81 39.92 18.51 5.92 25.87-8 33.09-26.79 7.42-19.3 26.65-7 26.39 15.17-.18 15.24-18.51 99.85.39 116.39 18.9 16.54 47.27 3.81 41.75-43.46-5.52-47.27-19.18-76.49-.43-79.83 15-2.62 12.21 24 39.39 27.58 27.18 3.58 28.75-8.41 39.39-43.07s39.22 8.71 98.47-15.62c22.16-9.11 39-30.73 52.38-9.06 13.38 21.67 17.73 39.39 40.57 39.78 22.84.39 22.46-33.09 40.18-35.45 17.72-2.36 17.73 19.3 35.06 14.18 17.33-5.12 19.3-14.31 31.51-8.4s1.18 27.31 7.88 53.7c6.7 26.39 39.38 28 37.41-10.64-1.97-38.64 0-57.11 20.09-52.78 20.09 4.33 33.88 12.21 44.12.79 0 0 7-11 19-11 11.29 0 18 31.47 30.59 32.26 8 .5 14.38-3.28 19.56-11.69 3-4.84 3.15-14 9.19-17.59 16.54-9.72 43.33 22.19 38.21 65.12-5.12 42.93 2.36 58.3 26.78 54.75 30.22-4.38 8.27-74 18.91-89s28.75-3.55 31.51 29.54c2.76 33.09 46.7 21.88 33.3-15.06-9.25-25.57 16.76-33.74 30.55-21.13 13.79 12.61 25.08 18.91 57.77 5.12 20-8.45 32.82-24.82 50.94-27.57 18.12-2.75 33.87 4.33 41 1.18a23.54 23.54 0 0012.22-11c3.07-5.63 15-11.42 19.69-3.54 4.08 6.79-4.43 26.17 11.42 38.46 15.36 11.91 34.27-2.75 49.63-1.18s6.3 34 24.82 39.92c18.52 5.92 25.86-8 33.08-26.79 7.43-19.3 26.66-7 26.39 15.17-.18 15.24-18.51 99.85.4 116.39 18.91 16.54 47.26 3.81 41.75-43.46-5.51-47.27-19.15-76.53-.4-79.83 15-2.62 12.22 24 39.39 27.58 27.17 3.58 28.76-8.41 39.39-43.07 10.63-34.66 39.26 8.71 98.47-15.62 22.17-9.11 39-30.73 52.39-9.06s17.72 39.39 40.57 39.78c22.85.39 22.45-33.09 40.18-35.45 17.73-2.36 17.72 19.3 35.05 14.18 17.33-5.12 19.3-14.31 31.51-8.4s1.18 27.31 7.88 53.7c6.7 26.39 39.39 28 37.42-10.64-1.97-38.64 0-57.11 20.09-52.78 20.09 4.33 33.87 12.21 44.11.79 0 0 7-11 19-11 11.29 0 18 31.47 30.59 32.26 8 .5 14.39-3.28 19.56-11.69 3-4.84 3.15-14 9.2-17.59 16.54-9.72 43.32 22.19 38.2 65.12-5.12 42.93 2.37 58.3 26.79 54.75 30.22-4.38 8.27-74 18.9-89 10.63-15 28.76-3.6 31.55 29.46 2.79 33.06 46.66 21.88 33.27-15.11-9.27-25.57 16.73-33.74 30.5-21.13 13.77 12.61 25.08 18.91 57.77 5.12 20.05-8.45 32.83-24.82 50.95-27.57 18.12-2.75 33.87 4.33 41 1.18a23.54 23.54 0 0012.21-11c3.07-5.63 15-11.42 19.69-3.54 4.08 6.79-4.43 26.17 11.43 38.46 15.36 11.91 34.26-2.75 49.63-1.18 15.37 1.57 6.3 34 24.81 39.92 18.51 5.92 25.87-8 33.09-26.79 7.42-19.3 26.65-7 26.39 15.17-.18 15.24-18.51 99.85.39 116.39 18.9 16.54 47.27 3.81 41.75-43.46-5.52-47.27-19.14-76.53-.39-79.83 15-2.62 12.21 24 39.39 27.58 27.18 3.58 28.75-8.41 39.39-43.07s39.25 8.71 98.47-15.62c22.16-9.11 39-30.73 52.38-9.06 13.38 21.67 17.73 39.39 40.57 39.78 22.84.39 22.46-33.09 40.18-35.45 17.72-2.36 17.73 19.3 35.06 14.18 17.33-5.12 19.3-14.31 31.51-8.4s1.18 27.31 7.88 53.7c6.7 26.39 39.38 28 37.41-10.64-1.97-38.64 0-57.11 20.09-52.78 20.09 4.33 33.88 12.21 44.12.79 0 0 7-11 19-11 11.3 0 18 31.47 30.6 32.26 8 .5 14.38-3.28 19.56-11.69 3-4.84 3.15-14 9.19-17.59 16.54-9.72 43.33 22.19 38.21 65.12-5.12 42.93 2.36 58.3 26.78 54.75 30.22-4.38 8.27-74 18.91-89s28.75-3.55 31.51 29.54c2.76 33.09 46.65 21.85 33.3-15.09-9.25-25.57 16.76-33.74 30.55-21.13 13.79 12.61 25.08 18.91 57.77 5.12 20.05-8.45 32.82-24.82 50.94-27.57 18.12-2.75 33.87 4.33 41 1.18a23.5 23.5 0 0012.21-11c3.08-5.63 15-11.42 19.7-3.54 4.08 6.79-4.43 26.17 11.42 38.46 15.36 11.91 34.27-2.75 49.63-1.18s6.3 34 24.82 39.92c18.52 5.92 25.86-8 33.08-26.79 7.43-19.3 26.66-7 26.39 15.17-.18 15.24-18.51 99.85.4 116.39 18.91 16.54 47.26 3.81 41.75-43.46-5.51-47.27-19.15-76.53-.4-79.83 15-2.62 12.21 24 39.39 27.58 27.18 3.58 28.76-8.41 39.39-43.07 10.63-34.66 39.26 8.71 98.47-15.62 22.17-9.11 39-30.73 52.39-9.06s17.72 39.39 40.57 39.78c22.85.39 22.45-33.09 40.18-35.45 17.73-2.36 17.72 19.3 35.05 14.18 17.33-5.12 19.3-14.31 31.51-8.4s1.18 27.31 7.88 53.7c6.7 26.39 39.39 28 37.42-10.64-1.97-38.64 0-57.11 20.09-52.78 20.09 4.33 33.87 12.21 44.11.79 0 0 7-11 19-11 11.29 0 18 31.47 30.59 32.26 8 .5 14.38-3.28 19.56-11.69 3-4.84 3.15-14 9.2-17.59 16.54-9.72 43.32 22.19 38.2 65.12-5.12 42.93 2.37 58.3 26.79 54.75 30.21-4.38 8.27-74 18.9-89 10.63-15 28.76-3.55 31.51 29.54 2.75 33.09 46.66 21.88 33.27-15.11-9.26-25.57 16.76-33.74 30.54-21.13 13.78 12.61 25.08 18.91 57.77 5.12 20.05-8.45 32.83-24.82 50.95-27.57 18.12-2.75 33.87 4.33 41 1.18V12.74z" id="path168"/><path class="cls-3" d="M4043.62 0H0v42.81S5.33 41 13.39 35.33c6.84-4.82 15.88-8.54 20.61-.67 4.08 6.8-3.67 21.54 10.9 35.34 14.57 13.8 28.64-6.86 43.72-3.54 19.7 4.33 10.64 33.08 29.15 39 18.51 5.92 25.87-8 33.09-26.78 7.42-19.3 26.65-7 26.39 15.16-.18 15.25-18.51 99.85.39 116.39 18.9 16.54 42.94 9.46 37.42-37.81-5.52-47.27-13.39-77.62 3.94-85.49 17.33-7.87 12.21 24 39.39 27.57 27.18 3.57 30.72-8.53 41.36-43.2s41.62 8.45 100.83-15.88c22.17-9.11 31.51-30.65 44.9-9 13.39 21.65 20.88 39.71 43.72 40.1 22.84.39 22.46-33.08 40.18-35.45 17.72-2.37 17.73 19.3 35.06 14.18 17.33-5.12 15-14.18 27.17-8.27 7.21 3.49 11.15 10.37 11.82 22.45.47 8.39-2.35 20.31.4 31.12 6.69 26.39 39.38 28 37.41-10.63-1.97-38.63 0-57.12 20.09-52.79 20.09 4.33 31.91 25.61 47.27 12.22 0 0 10.9-14.64 19.3-17.5 15.1-5.12 14.57 26.68 27.18 27.35 19.56 1 12.21-19.56 28.75-29.27s46.48 21.87 41.36 64.8c-5.12 42.93-.79 58.61 23.63 55.07 30.22-4.39 8.27-74.05 18.91-89 10.64-14.95 28.75-3.55 31.51 29.54 2.76 33.09 35.45 24 28-9.06-6-26.52 17.34-33.87 31.12-21.27 13.78 12.6 33.09 22.67 62.89 3.41 19.43-12.55 32.43-29 50.55-31.77 18.12-2.77 33.87 4.33 41 1.18 0 0 5.33-1.79 13.4-7.48 6.83-4.82 15.88-8.54 20.61-.67 4.07 6.8-3.68 21.54 10.9 35.33s28.64-6.86 43.72-3.54c19.69 4.33 10.63 33.08 29.15 39 18.52 5.92 25.86-8 33.08-26.78 7.43-19.3 26.66-7 26.39 15.16-.18 15.25-18.51 99.85.4 116.39 18.91 16.54 42.93 9.46 37.42-37.81-5.51-47.27-13.4-77.6 3.93-85.47 17.33-7.87 12.22 24 39.39 27.57 27.17 3.57 30.73-8.53 41.36-43.2 10.63-34.67 41.62 8.45 100.84-15.88 22.16-9.11 31.51-30.65 44.9-9 13.39 21.65 20.87 39.71 43.72 40.1 22.85.39 22.45-33.08 40.18-35.45 17.73-2.37 17.72 19.3 35.05 14.18 17.33-5.12 15-14.18 27.18-8.27 7.21 3.49 11.14 10.37 11.82 22.45.47 8.39-2.35 20.31.39 31.12 6.7 26.39 39.39 28 37.42-10.63-1.97-38.63 0-57.12 20.09-52.79 20.09 4.33 31.9 25.61 47.26 12.22 0 0 10.9-14.64 19.3-17.5 15.09-5.13 14.57 26.67 27.18 27.34 19.56 1 12.21-19.56 28.76-29.27s46.47 21.87 41.35 64.8c-5.12 42.93-.78 58.61 23.64 55.07 30.22-4.39 8.27-74.05 18.9-89 10.63-14.95 28.76-3.55 31.51 29.54 2.75 33.09 35.45 24 28-9.06-6-26.52 17.33-33.87 31.12-21.27 13.79 12.6 33.09 22.67 62.89 3.41 19.43-12.55 32.43-29 50.55-31.77 18.12-2.77 33.87 4.33 41 1.18 0 0 5.33-1.79 13.39-7.48 6.84-4.82 15.88-8.54 20.61-.67 4.08 6.8-3.67 21.54 10.9 35.33s28.64-6.86 43.72-3.54c19.7 4.33 10.64 33.08 29.15 39 18.51 5.92 25.87-8 33.09-26.78 7.42-19.3 26.65-7 26.39 15.16-.18 15.25-18.51 99.85.39 116.39 18.9 16.54 42.94 9.46 37.42-37.81-5.52-47.27-13.39-77.6 3.94-85.47 17.33-7.87 12.21 24 39.39 27.57 27.18 3.57 30.72-8.53 41.36-43.2s41.62 8.45 100.83-15.88c22.17-9.11 31.51-30.65 44.9-9 13.39 21.65 20.88 39.71 43.72 40.1 22.84.39 22.46-33.08 40.18-35.45 17.72-2.37 17.73 19.3 35.06 14.18 17.33-5.12 15-14.18 27.17-8.27 7.21 3.49 11.15 10.37 11.82 22.45.47 8.39-2.35 20.31.4 31.12 6.69 26.39 39.38 28 37.41-10.63-1.97-38.63 0-57.12 20.09-52.79 20.09 4.33 31.91 25.61 47.27 12.22 0 0 10.9-14.64 19.3-17.5 15.08-5.13 14.57 26.67 27.18 27.34 19.56 1 12.21-19.56 28.75-29.27s46.48 21.87 41.36 64.8c-5.12 42.93-.79 58.61 23.63 55.07 30.22-4.39 8.27-74.05 18.91-89 10.64-14.95 28.75-3.55 31.51 29.54 2.76 33.09 35.45 24 28-9.06-6-26.52 17.34-33.87 31.12-21.27 13.78 12.6 33.09 22.67 62.89 3.41 19.43-12.55 32.43-29 50.55-31.77 18.12-2.77 33.87 4.33 41 1.18 0 0 5.33-1.79 13.4-7.48 6.83-4.82 15.88-8.54 20.61-.67 4.07 6.8-3.68 21.54 10.9 35.33s28.64-6.86 43.72-3.54c19.69 4.33 10.63 33.08 29.15 39 18.52 5.92 25.86-8 33.08-26.78 7.43-19.3 26.66-7 26.39 15.16-.18 15.25-18.51 99.85.4 116.39 18.91 16.54 42.93 9.46 37.42-37.81-5.51-47.27-13.4-77.6 3.93-85.47 17.33-7.87 12.21 24 39.39 27.57 27.18 3.57 30.73-8.53 41.36-43.2 10.63-34.67 41.62 8.45 100.84-15.88 22.16-9.11 31.51-30.65 44.9-9 13.39 21.65 20.87 39.71 43.72 40.1 22.85.39 22.45-33.08 40.18-35.45 17.73-2.37 17.72 19.3 35.05 14.18 17.33-5.12 15-14.18 27.18-8.27 7.21 3.49 11.14 10.37 11.82 22.45.46 8.39-2.35 20.31.39 31.12 6.7 26.39 39.39 28 37.42-10.63-1.97-38.63 0-57.12 20.09-52.79 20.09 4.33 31.9 25.61 47.26 12.22 0 0 10.9-14.64 19.3-17.5 15.09-5.13 14.57 26.67 27.18 27.34 19.56 1 12.21-19.56 28.76-29.27s46.47 21.87 41.35 64.8c-5.12 42.93-.78 58.61 23.64 55.07 30.21-4.39 8.27-74.05 18.9-89 10.63-14.95 28.76-3.55 31.51 29.54 2.75 33.09 35.45 24 28-9.06-6-26.52 17.33-33.87 31.12-21.27 13.79 12.6 33.08 22.67 62.89 3.41 19.43-12.55 32.43-29 50.55-31.77 18.12-2.77 33.87 4.33 41 1.18V0z" id="path170"/><ellipse class="cls-2" cx="1465.45" cy="130.6" rx="13.39" ry="15.12" id="ellipse172"/><ellipse class="cls-3" cx="1465.45" cy="126.56" rx="11.91" ry="11.08" id="ellipse174"/><g class="cls-4" id="g178"><path class="cls-5" d="M1292.32 143c0 6 0 12 .17 17.92.17 5.92.5 11.82 1.24 17.62.38 2.9.88 5.77 1.53 8.59a47.38 47.38 0 002.7 8.14 22.77 22.77 0 004.72 7 17.5 17.5 0 007.5 4.3 15.26 15.26 0 01-8.74-2.78 21.81 21.81 0 01-6.25-7.06 38.19 38.19 0 01-3.6-8.62 65.35 65.35 0 01-1.82-9 99 99 0 012.55-36.06z" id="path176"/></g><g class="cls-4" id="g182"><path class="cls-5" d="M1579.48 55.42c1.71 2.47 3.24 4.89 4.81 7.26 1.57 2.37 3.13 4.67 4.81 6.83a37.94 37.94 0 005.56 5.89 21.53 21.53 0 007.27 4 12.75 12.75 0 01-9-1.41 22.17 22.17 0 01-7-6.06 32.33 32.33 0 01-4.45-7.85 27.6 27.6 0 01-2-8.66z" id="path180"/></g><g class="cls-4" id="g186"><path class="cls-5" d="M1444.53 52.79c5.37.21 10.65.42 15.93.52 5.28.1 10.53.18 15.79.09s10.51-.22 15.77-.52c5.26-.3 10.53-.71 15.92-.93a82.09 82.09 0 01-15.58 4.05 104.25 104.25 0 01-16.06 1.39 109.55 109.55 0 01-16.09-1 76.65 76.65 0 01-15.68-3.6z" id="path184"/></g><g class="cls-4" id="g190"><path class="cls-5" d="M1725.48 87.58c-.08 3.29-.17 6.45-.13 9.56a60.54 60.54 0 00.72 9.11 28.71 28.71 0 002.63 8.41 23.9 23.9 0 002.43 3.77 33.91 33.91 0 003.27 3.45 14.53 14.53 0 01-4.58-2 17 17 0 01-3.77-3.52 21.27 21.27 0 01-3.93-9.47 30.33 30.33 0 01.11-10 28.16 28.16 0 013.25-9.31z" id="path188"/></g><g class="cls-4" id="g194"><path class="cls-5" d="M2147.85 55.25a49.17 49.17 0 019.9-10.27 57.19 57.19 0 0112.3-7.46 45.44 45.44 0 0114-3.77 32.92 32.92 0 0114.24 1.58 63.32 63.32 0 00-13.75 1.52 70.49 70.49 0 00-12.86 4.33 105.5 105.5 0 00-12.12 6.38c-3.97 2.37-7.83 4.95-11.71 7.69z" id="path192"/></g><g class="cls-4" id="g198"><path class="cls-5" d="M1962.2 149.82a7.07 7.07 0 001.85-1.57 11 11 0 00.74-.92 8.26 8.26 0 00.64-1 25.57 25.57 0 002-4.19 70.07 70.07 0 002.53-9.09c.62-3.13 1.22-6.28 1.77-9.49.25-1.61.63-3.21.9-4.84s.63-3.25 1.13-4.9c.39 1.65.61 3.31.84 5a49.69 49.69 0 01.26 5 48.89 48.89 0 01-1 10.06 33.09 33.09 0 01-3.63 9.64 17.21 17.21 0 01-3.34 4.08 8.44 8.44 0 01-1.05.82 6.87 6.87 0 01-1.14.68 5.5 5.5 0 01-2.5.72z" id="path196"/></g><g class="cls-4" id="g202"><path class="cls-5" d="M1231.28 99.53a33.48 33.48 0 007.45-2.08 31.82 31.82 0 006.33-3.54c.93-.78 1.92-1.47 2.79-2.35.44-.43 1-.8 1.35-1.27.35-.47.86-.91 1.3-1.36.44-.45.84-.94 1.27-1.42.43-.48.85-1 1.3-1.46.84-1 1.63-2.06 2.63-3.06a27.27 27.27 0 01-.92 4c-.25.64-.51 1.28-.8 1.91a12.47 12.47 0 01-.94 1.86 20.13 20.13 0 01-2.48 3.42 21.7 21.7 0 01-3.13 2.92 19 19 0 01-7.88 3.34 13.9 13.9 0 01-8.27-.91z" id="path200"/></g><ellipse class="cls-6" cx="1465.45" cy="122.66" rx="5.93" ry="5.51" id="ellipse204"/><ellipse class="cls-2" cx="352.72" cy="130.6" rx="13.39" ry="15.12" id="ellipse206"/><ellipse class="cls-3" cx="352.72" cy="126.56" rx="11.91" ry="11.08" id="ellipse208"/><g class="cls-4" id="g212"><path class="cls-5" d="M179.6 143c0 6 0 12 .17 17.92.17 5.92.5 11.82 1.24 17.62.38 2.9.87 5.77 1.52 8.59a48.29 48.29 0 002.71 8.14 22.74 22.74 0 004.71 7 17.56 17.56 0 007.5 4.3 15.28 15.28 0 01-8.74-2.78 21.78 21.78 0 01-6.24-7.06 38.22 38.22 0 01-3.61-8.62 65.35 65.35 0 01-1.82-9A98.74 98.74 0 01179.6 143z" id="path210"/></g><g class="cls-4" id="g216"><path class="cls-5" d="M466.75 55.42c1.71 2.47 3.24 4.89 4.81 7.26 1.57 2.37 3.13 4.67 4.82 6.83a37.88 37.88 0 005.55 5.89 21.72 21.72 0 007.27 4 12.76 12.76 0 01-9-1.41 22.13 22.13 0 01-7-6.06 31.68 31.68 0 01-4.45-7.85 27.61 27.61 0 01-2-8.66z" id="path214"/></g><g class="cls-4" id="g220"><path class="cls-5" d="M331.81 52.79c5.36.21 10.64.42 15.92.52 5.28.1 10.54.18 15.79.09s10.51-.22 15.77-.52c5.26-.3 10.53-.71 15.92-.93A82.09 82.09 0 01379.63 56a104 104 0 01-16.06 1.39 109.34 109.34 0 01-16.08-1 76.65 76.65 0 01-15.68-3.6z" id="path218"/></g><g class="cls-4" id="g224"><path class="cls-5" d="M612.75 87.58c-.07 3.29-.16 6.45-.12 9.56a60.55 60.55 0 00.71 9.11 29 29 0 002.63 8.41 24.71 24.71 0 002.44 3.77 31.83 31.83 0 003.27 3.45 14.59 14.59 0 01-4.59-2 16.73 16.73 0 01-3.76-3.52 21.15 21.15 0 01-3.93-9.47 29.8 29.8 0 01.11-10 28.14 28.14 0 013.24-9.31z" id="path222"/></g><g class="cls-4" id="g228"><path class="cls-5" d="M1035.13 55.25A49.38 49.38 0 011045 45a57.19 57.19 0 0112.3-7.46 45.5 45.5 0 0114-3.77 32.92 32.92 0 0114.24 1.58 63.32 63.32 0 00-13.75 1.52 70.23 70.23 0 00-12.86 4.33 104.81 104.81 0 00-12.13 6.38c-3.94 2.35-7.8 4.93-11.67 7.67z" id="path226"/></g><g class="cls-4" id="g232"><path class="cls-5" d="M849.48 149.82a7 7 0 001.84-1.57 8.05 8.05 0 00.74-.92 6.35 6.35 0 00.64-1 24.82 24.82 0 002-4.19 70 70 0 002.52-9.09c.63-3.13 1.22-6.28 1.77-9.49.26-1.61.64-3.21.91-4.84s.63-3.25 1.12-4.9a49.76 49.76 0 01.84 5 47 47 0 01.27 5 48.9 48.9 0 01-1 10.06 32.78 32.78 0 01-3.62 9.64 17.45 17.45 0 01-3.34 4.08 8.55 8.55 0 01-1.06.82 6.48 6.48 0 01-1.14.68 5.43 5.43 0 01-2.49.72z" id="path230"/></g><g class="cls-4" id="g236"><path class="cls-5" d="M118.56 99.53a33.24 33.24 0 007.44-2.08 31.27 31.27 0 006.33-3.54c.93-.78 1.93-1.47 2.79-2.35a18.08 18.08 0 001.35-1.27c.42-.46.86-.91 1.31-1.36.45-.45.84-.94 1.27-1.42.43-.48.85-1 1.3-1.46.83-1 1.63-2.06 2.63-3.06a28.6 28.6 0 01-.92 4c-.25.64-.52 1.28-.8 1.91a11.63 11.63 0 01-.95 1.86 20.07 20.07 0 01-2.47 3.42 22.31 22.31 0 01-3.14 2.92 18.91 18.91 0 01-7.87 3.34 13.89 13.89 0 01-8.27-.91z" id="path234"/></g><ellipse class="cls-6" cx="352.72" cy="122.66" rx="5.93" ry="5.51" id="ellipse238"/><ellipse class="cls-2" cx="2578.17" cy="130.6" rx="13.39" ry="15.12" id="ellipse240"/><ellipse class="cls-3" cx="2578.17" cy="126.56" rx="11.91" ry="11.08" id="ellipse242"/><g class="cls-4" id="g246"><path class="cls-5" d="M2405.05 143c0 6 0 12 .17 17.92.17 5.92.5 11.82 1.24 17.62.38 2.9.87 5.77 1.52 8.59a48.29 48.29 0 002.71 8.14 22.74 22.74 0 004.71 7 17.56 17.56 0 007.5 4.3 15.28 15.28 0 01-8.74-2.78 21.78 21.78 0 01-6.24-7.06 38.22 38.22 0 01-3.61-8.62 65.35 65.35 0 01-1.82-9 91.72 91.72 0 01-.38-18.21 90.63 90.63 0 012.94-17.9z" id="path244"/></g><g class="cls-4" id="g250"><path class="cls-5" d="M2692.2 55.42c1.71 2.47 3.24 4.89 4.81 7.26 1.57 2.37 3.13 4.67 4.82 6.83a37.88 37.88 0 005.55 5.89 21.72 21.72 0 007.27 4 12.76 12.76 0 01-9-1.41 22.13 22.13 0 01-7-6.06 31.68 31.68 0 01-4.45-7.85 27.61 27.61 0 01-2-8.66z" id="path248"/></g><g class="cls-4" id="g254"><path class="cls-5" d="M2557.26 52.79c5.36.21 10.64.42 15.92.52 5.28.1 10.54.18 15.79.09s10.51-.22 15.77-.52c5.26-.3 10.53-.71 15.92-.93a82.09 82.09 0 01-15.58 4.05 104 104 0 01-16.08 1.4 109.34 109.34 0 01-16.08-1 76.65 76.65 0 01-15.66-3.61z" id="path252"/></g><g class="cls-4" id="g258"><path class="cls-5" d="M2838.2 87.58c-.07 3.29-.16 6.45-.12 9.56a60.55 60.55 0 00.71 9.11 29 29 0 002.63 8.41 24.71 24.71 0 002.44 3.77 31.83 31.83 0 003.27 3.45 14.59 14.59 0 01-4.59-2 16.73 16.73 0 01-3.76-3.52 21 21 0 01-3.93-9.47 29.8 29.8 0 01.11-10 28.14 28.14 0 013.24-9.31z" id="path256"/></g><g class="cls-4" id="g262"><path class="cls-5" d="M3260.58 55.25a49.38 49.38 0 019.89-10.25 57.19 57.19 0 0112.3-7.46 45.51 45.51 0 0114-3.77 33 33 0 0114.23 1.56 63.32 63.32 0 00-13.75 1.52 70.23 70.23 0 00-12.86 4.33 104.81 104.81 0 00-12.13 6.38c-3.95 2.37-7.8 4.95-11.68 7.69z" id="path260"/></g><g class="cls-4" id="g266"><path class="cls-5" d="M3074.93 149.82a7 7 0 001.84-1.57 8.05 8.05 0 00.74-.92 6.35 6.35 0 00.64-1 24.82 24.82 0 002-4.19 70 70 0 002.52-9.09c.63-3.13 1.22-6.28 1.77-9.49.25-1.61.63-3.21.91-4.84s.63-3.25 1.12-4.9a49.76 49.76 0 01.84 5 47 47 0 01.27 5 48.9 48.9 0 01-1 10.06 32.78 32.78 0 01-3.62 9.64 17.45 17.45 0 01-3.34 4.08 8.55 8.55 0 01-1.06.82 6.48 6.48 0 01-1.14.68 5.43 5.43 0 01-2.49.72z" id="path264"/></g><g class="cls-4" id="g270"><path class="cls-5" d="M2344 99.53a33.24 33.24 0 007.44-2.08 31.27 31.27 0 006.33-3.54c.93-.78 1.93-1.47 2.79-2.35a18.08 18.08 0 001.35-1.27c.42-.46.86-.91 1.31-1.36.45-.45.84-.94 1.27-1.42.43-.48.85-1 1.3-1.46.83-1 1.63-2.06 2.63-3.06a28.6 28.6 0 01-.92 4c-.25.64-.52 1.28-.8 1.91a11.63 11.63 0 01-.95 1.86 20.07 20.07 0 01-2.47 3.42 22.31 22.31 0 01-3.14 2.92 18.91 18.91 0 01-7.87 3.34 13.89 13.89 0 01-8.27-.91z" id="path268"/></g><ellipse class="cls-6" cx="2578.17" cy="122.66" rx="5.93" ry="5.51" id="ellipse272"/><ellipse class="cls-2" cx="3690.9" cy="130.6" rx="13.39" ry="15.12" id="ellipse274"/><ellipse class="cls-3" cx="3690.9" cy="126.56" rx="11.91" ry="11.08" id="ellipse276"/><g class="cls-4" id="g280"><path class="cls-5" d="M3517.77 143c0 6 0 12 .17 17.92.17 5.92.5 11.82 1.24 17.62.38 2.9.87 5.77 1.53 8.59a47.38 47.38 0 002.7 8.14 22.77 22.77 0 004.72 7 17.44 17.44 0 007.5 4.3 15.31 15.31 0 01-8.75-2.78 21.89 21.89 0 01-6.24-7.06A37.74 37.74 0 013517 188a65.35 65.35 0 01-1.82-9 99 99 0 012.55-36.06z" id="path278"/></g><g class="cls-4" id="g284"><path class="cls-5" d="M3804.93 55.42c1.71 2.47 3.24 4.89 4.81 7.26 1.57 2.37 3.13 4.67 4.81 6.83a37.48 37.48 0 005.56 5.89 21.53 21.53 0 007.27 4 12.75 12.75 0 01-9-1.41 22.17 22.17 0 01-7-6.06 32.33 32.33 0 01-4.45-7.85 27.6 27.6 0 01-2-8.66z" id="path282"/></g><g class="cls-4" id="g288"><path class="cls-5" d="M3670 52.79c5.37.21 10.65.42 15.93.52 5.28.1 10.53.18 15.79.09s10.51-.22 15.77-.52c5.26-.3 10.53-.71 15.92-.93a82.09 82.09 0 01-15.6 4.05 104.25 104.25 0 01-16.06 1.39 109.55 109.55 0 01-16.09-1 76.65 76.65 0 01-15.66-3.6z" id="path286"/></g><g class="cls-4" id="g292"><path class="cls-5" d="M3950.93 87.58c-.08 3.29-.17 6.45-.13 9.56a60.54 60.54 0 00.72 9.11 28.71 28.71 0 002.63 8.41 23.9 23.9 0 002.43 3.77 33.91 33.91 0 003.27 3.45 14.53 14.53 0 01-4.58-2 17 17 0 01-3.77-3.52 21.27 21.27 0 01-3.93-9.47 30.33 30.33 0 01.11-10 28.16 28.16 0 013.25-9.31z" id="path290"/></g><g class="cls-4" id="g296"><path class="cls-5" d="M4373.3 55.25a49.17 49.17 0 019.9-10.25 57.19 57.19 0 0112.3-7.46 45.44 45.44 0 0114-3.77 32.92 32.92 0 0114.24 1.58 63.32 63.32 0 00-13.74 1.5 70.49 70.49 0 00-12.86 4.33 105.5 105.5 0 00-12.14 6.38c-4 2.37-7.82 4.95-11.7 7.69z" id="path294"/></g><g class="cls-4" id="g300"><path class="cls-5" d="M4187.65 149.82a7.07 7.07 0 001.85-1.57 9.21 9.21 0 00.73-.92 7.24 7.24 0 00.65-1 25.57 25.57 0 002-4.19 70.07 70.07 0 002.53-9.09c.62-3.13 1.22-6.28 1.77-9.49.25-1.61.63-3.21.9-4.84s.63-3.25 1.13-4.9c.39 1.65.61 3.31.84 5a49.69 49.69 0 01.26 5 48.89 48.89 0 01-1 10.06 33.09 33.09 0 01-3.63 9.64 17.21 17.21 0 01-3.34 4.08 8.44 8.44 0 01-1.05.82 6.87 6.87 0 01-1.14.68 5.5 5.5 0 01-2.5.72z" id="path298"/></g><g class="cls-4" id="g304"><path class="cls-5" d="M3456.73 99.53a33.48 33.48 0 007.45-2.08 31.82 31.82 0 006.33-3.54c.93-.78 1.92-1.47 2.79-2.35.44-.43.94-.8 1.35-1.27.41-.47.86-.91 1.3-1.36.44-.45.84-.94 1.27-1.42.43-.48.85-1 1.3-1.46.84-1 1.63-2.06 2.63-3.06a27.27 27.27 0 01-.92 4c-.25.64-.51 1.28-.8 1.91a12.47 12.47 0 01-.94 1.86 20.13 20.13 0 01-2.48 3.42 21.7 21.7 0 01-3.13 2.92 19 19 0 01-7.88 3.34 13.9 13.9 0 01-8.27-.91z" id="path302"/></g><ellipse class="cls-6" cx="3690.9" cy="122.66" rx="5.93" ry="5.51" id="ellipse306"/></g></g></g></g></svg>